<svg width="564" height="441" viewBox="0 0 564 441" fill="none" xmlns="http://www.w3.org/2000/svg"><g clip-path="url(#clip0_admin)"><path d="M505 0.0966797C537.89 1.91217 564 29.1567 564 62.5C564 62.6668 563.998 62.8335 563.997 63H564V295H563.981C563.212 327.657 537.395 354.114 505 355.902V356H404C358.87 356 316.914 385.464 282 436.003V121H282.19C285.825 53.563 341.656 0 410 0H505V0.0966797Z" fill="url(#paint0_linear_admin)"/><path d="M159 0.0957031C225.048 2.63266 278.264 55.2151 281.81 121H282V436.003C247.086 385.464 205.13 356 160 356H63V355.996C62.8335 355.997 62.6668 356 62.5 356C27.9822 356 0 328.018 0 293.5C0 291.987 0.0553876 290.486 0.161133 289H0V61H0.0185547C0.811322 27.3411 28.2129 0.267676 62 0.00292969V0H159V0.0957031Z" fill="url(#paint1_linear_admin)"/><g filter="url(#filter0_d_admin)"><path d="M397 304.418C332.64 309.798 282 366.653 282 436H281C281 367.013 230.884 310.387 167 304.505V304H86C69.4315 304 56 290.569 56 274V79H56.0684C57.076 63.6932 69.5612 51.5232 85 51.0176V51H170C225.658 51 271.999 93.5109 282 149.729C292.001 93.5109 338.342 51 394 51H479V51.0176C494.439 51.5232 506.924 63.6932 507.932 79H508V274C508 290.234 495.106 303.454 479 303.981V304H397V304.418Z" fill="url(#paint2_linear_admin)"/></g><path d="M479 51.0176C494.439 51.5232 506.924 63.6932 507.932 79H508V274C508 290.234 495.106 303.454 479 303.981V304H397V304.418C332.64 309.798 282 366.653 282 436V149.729C292.001 93.5109 338.342 51 394 51H479V51.0176Z" fill="#D8F4FF"/><path d="M462 27C464.087 27 465.8 29.1968 465.983 32H466V191H465.888L438.5 169.671L411.112 191H411V51H401.12C401.041 49.7076 401 48.3699 401 47C401 35.9543 403.686 27 407 27H462Z" fill="url(#paint3_linear_admin)"/><path d="M410 28C410.552 28 411 28.4477 411 29V51H402.067C402.023 50.0214 402 49.0196 402 48C402 36.9543 404.686 28 408 28H410Z" fill="#0A2D4A"/><path d="M112 145H211" stroke="#C8EEFF" stroke-width="16" stroke-linecap="round"/><path d="M113 188H212" stroke="#C8EEFF" stroke-width="16" stroke-linecap="round"/><path d="M112 231H211" stroke="#C8EEFF" stroke-width="16" stroke-linecap="round"/></g><defs><filter id="filter0_d_admin" x="56" y="51" width="452" height="390" filterUnits="userSpaceOnUse" color-interpolation-filters="sRGB"><feFlood flood-opacity="0" result="BackgroundImageFix"/><feColorMatrix in="SourceAlpha" type="matrix" values="0 0 0 0 0 0 0 0 0 0 0 0 0 0 0 0 0 0 127 0" result="hardAlpha"/><feOffset dy="5"/><feComposite in2="hardAlpha" operator="out"/><feColorMatrix type="matrix" values="0 0 0 0 0 0 0 0 0 0.35 0 0 0 0 0.55 0 0 0 0.35 0"/><feBlend mode="normal" in2="BackgroundImageFix" result="effect1_dropShadow_admin"/><feBlend mode="normal" in="SourceGraphic" in2="effect1_dropShadow_admin" result="shape"/></filter><linearGradient id="paint0_linear_admin" x1="649.5" y1="226" x2="261.5" y2="-61.5" gradientUnits="userSpaceOnUse"><stop stop-color="#00F0FF"/><stop offset="1" stop-color="#0066FF"/></linearGradient><linearGradient id="paint1_linear_admin" x1="1.14158e-06" y1="27.4624" x2="282" y2="408.541" gradientUnits="userSpaceOnUse"><stop stop-color="#22DDFF"/><stop offset="1" stop-color="#0044CC"/></linearGradient><linearGradient id="paint2_linear_admin" x1="249.5" y1="55.5" x2="75.5" y2="389.5" gradientUnits="userSpaceOnUse"><stop offset="0.298077" stop-color="#66EEFF"/><stop offset="0.846154" stop-color="#3399FF"/></linearGradient><linearGradient id="paint3_linear_admin" x1="414" y1="109" x2="462.5" y2="109" gradientUnits="userSpaceOnUse"><stop stop-color="#0088DD"/><stop offset="1" stop-color="#00CCFF"/></linearGradient><clipPath id="clip0_admin"><rect width="564" height="441" fill="white"/></clipPath></defs></svg>
